<?xml version="1.0" encoding="UTF-8"?>
<svg width="86px" height="83px" viewBox="0 0 86 83" version="1.1" xmlns="http://www.w3.org/2000/svg" xmlns:xlink="http://www.w3.org/1999/xlink">
    <title>画板</title>
    <defs>
        <linearGradient x1="49.1326309%" y1="0%" x2="50.9276465%" y2="100%" id="linearGradient-1">
            <stop stop-color="#0093ED" offset="0%"></stop>
            <stop stop-color="#00F3AB" offset="100%"></stop>
        </linearGradient>
        <linearGradient x1="10.4929716%" y1="38.4391061%" x2="92.2525491%" y2="61.5608939%" id="linearGradient-2">
            <stop stop-color="#0093ED" offset="0%"></stop>
            <stop stop-color="#00F3AB" offset="100%"></stop>
        </linearGradient>
        <linearGradient x1="10.4929716%" y1="25.188621%" x2="92.2525491%" y2="74.811379%" id="linearGradient-3">
            <stop stop-color="#0093ED" offset="0%"></stop>
            <stop stop-color="#00F3AB" offset="100%"></stop>
        </linearGradient>
    </defs>
    <g id="画板" stroke="none" stroke-width="1" fill="none" fill-rule="evenodd">
        <g id="liwu-3" transform="translate(3.000000, 0.000000)" fill-rule="nonzero" stroke-width="0.96">
            <path d="M44.6923077,30.3352385 L44.6923077,70.2327851 L38.3076923,70.2327851 L38.3076923,30.3352385 C38.3076923,29.1949168 38.9161427,28.1412161 39.9038461,27.5710553 C40.8915496,27.0008944 42.1084504,27.0008944 43.0961539,27.5710553 C44.0838573,28.1412161 44.6923077,29.1949168 44.6923077,30.3352385 Z" id="Path" stroke="url(#linearGradient-1)" fill="url(#linearGradient-1)"></path>
            <path d="M55.2061883,0.644706612 C56.5775476,1.68015586 56.8830235,3.61520914 55.8973077,5.022639 L55.7376923,5.23010627 L48.223,14.376 L73.4230769,14.3762199 C78.6210726,14.3762199 82.8518494,18.5167223 82.9961931,23.6790053 L83,23.9516311 L83,33.5270423 C83,37.0526113 80.1415103,39.9106497 76.6153847,39.9106497 L6.38461533,39.9106497 C2.85848967,39.9106497 0,37.0526113 0,33.5270423 L0,23.9516311 C0,18.6632775 4.28773451,14.3762199 9.57692308,14.3762199 L34.774,14.376 L27.2607116,5.23010627 C26.1430223,3.86775279 26.3409309,1.85754716 27.7028461,0.739238422 C28.9864075,-0.314853427 30.8639491,-0.20867283 32.0204423,0.983411407 L32.1960192,1.17970734 L41.3739038,12.3510204 C41.4183185,12.4050819 41.4606667,12.4601817 41.5009558,12.5162225 L41.6276923,12.3510204 L50.805577,1.17970734 C51.8897516,-0.154976839 53.834829,-0.390742631 55.2061883,0.644706612 Z M73.4230769,20.7598273 L9.57692308,20.7598273 C8.73027042,20.7598273 7.91829444,21.0961056 7.31962059,21.6946849 C6.72094675,22.2932643 6.38461533,23.1051121 6.38461533,23.9516311 L6.38461533,33.5270423 L76.6153847,33.5270423 L76.6153847,23.9516311 C76.6153847,23.1051121 76.2790532,22.2932643 75.6803794,21.6946849 C75.0817056,21.0961056 74.2697296,20.7598273 73.4230769,20.7598273 Z" id="Combined-Shape" stroke="url(#linearGradient-2)"></path>
            <path d="M70.2307693,33.5270423 L12.7692307,33.5270423 C9.24310505,33.5270423 6.38461533,36.3850806 6.38461533,39.9106497 L6.38461533,76.6163926 C6.38461533,80.1419616 9.24310505,83 12.7692307,83 L70.2307693,83 C73.7568949,83 76.6153847,80.1419616 76.6153847,76.6163926 L76.6153847,39.9106497 C76.6153847,36.3850806 73.7568949,33.5270423 70.2307693,33.5270423 Z M12.7692307,39.9106497 L70.2307693,39.9106497 L70.2307693,76.6163926 L12.7692307,76.6163926 L12.7692307,39.9106497 Z" id="Shape" stroke="url(#linearGradient-3)"></path>
        </g>
    </g>
</svg>