<?xml version="1.0" encoding="UTF-8"?>
<svg width="80px" height="80px" viewBox="0 0 80 80" version="1.1" xmlns="http://www.w3.org/2000/svg" xmlns:xlink="http://www.w3.org/1999/xlink">
    <title>画板</title>
    <defs>
        <rect id="path-1" x="0" y="0" width="75" height="79"></rect>
        <linearGradient x1="50%" y1="0%" x2="94.7433733%" y2="99.7987013%" id="linearGradient-3">
            <stop stop-color="#0093ED" offset="0%"></stop>
            <stop stop-color="#00F3AB" offset="100%"></stop>
        </linearGradient>
        <path d="M73.8441,72.9011 C73.5233,72.3055 72.8683,72.0298 72.1777,72.2076 C71.2553,72.441 70.3419,72.6855 69.4242,72.9233 C69.1077,73.0056 68.7914,73.0856 68.4661,73.1678 C66.528,66.3239 64.5987,59.5113 62.6651,52.6986 C62.8565,52.5474 63.0259,52.423 63.1907,52.2829 C63.9394,51.6428 64.5185,50.8603 65.022,50.0136 C65.775,48.7422 66.3096,47.3729 66.7107,45.9482 C67.5171,43.0985 67.8068,40.1779 67.8557,37.2284 C67.8825,35.4057 67.8156,33.5852 67.6865,31.7671 C67.5885,30.3912 67.4858,29.0153 67.33,27.646 C67.1606,26.1591 66.9424,24.6786 66.7107,23.2006 C66.4255,21.3691 66.0289,19.562 65.5122,17.7817 C64.0863,12.8782 62.2818,8.11501 60.259,3.43611 C60.1788,3.2494 60.0807,3.06931 59.9694,2.89812 C59.1006,1.54672 57.4208,0.762051 55.5762,1.27561 C53.5356,1.84455 51.4904,2.38695 49.4454,2.94257 C46.4958,3.74056 43.5506,4.54295 40.6011,5.33423 C38.7743,5.82547 37.7272,7.44146 37.6872,8.96626 C37.6782,9.29743 37.7183,9.6308 37.7317,9.96427 C37.7986,11.2779 37.9589,12.5849 38.1683,13.8806 C38.4132,15.3988 38.6895,16.9147 38.9747,18.4262 C39.3133,20.191 39.6875,21.9492 40.2222,23.6674 C41.3717,27.3349 42.7396,30.918 44.2545,34.4455 C45.3818,37.0749 46.5937,39.6645 48.0552,42.125 C49.334,44.281 50.6929,46.3793 52.288,48.3131 C53.237,49.4667 54.2661,50.5448 55.4604,51.4405 C56.4717,52.1984 57.5634,52.7919 58.8064,53.052 C59.1317,53.1208 59.4569,53.1565 59.8179,53.2142 C61.7693,60.0936 63.7209,66.9886 65.677,73.8968 C65.4676,73.9546 65.2805,74.0057 65.0978,74.0524 C63.7076,74.417 62.3175,74.7748 60.9318,75.1482 C60.2946,75.3193 59.8847,75.8618 59.8713,76.4885 C59.858,77.1621 60.2232,77.6977 60.847,77.9288 C60.905,77.9511 60.9629,77.9755 61.0252,78 L61.6002,78 C62.1392,77.8511 62.6783,77.6933 63.222,77.551 C66.3988,76.7197 69.5756,75.8929 72.7569,75.0682 C73.2068,74.9526 73.5946,74.7527 73.8263,74.328 C73.8975,74.2013 73.9422,74.0591 74,73.9235 L74,73.2766 C73.9464,73.1522 73.9064,73.0212 73.8441,72.9011 Z M41.8664,18.2262 C41.5411,16.3813 41.1936,14.5409 40.9129,12.6894 C40.7437,11.5624 40.6679,10.42 40.5698,9.28411 C40.512,8.67072 40.8149,8.29051 41.4387,8.12162 C43.2075,7.64369 44.9764,7.16806 46.7452,6.68793 C49.8864,5.83888 53.0321,4.98754 56.1777,4.1362 C56.338,4.09395 56.5074,4.0473 56.6723,4.04059 C57.1312,4.01837 57.4697,4.24071 57.6525,4.67189 C58.2763,6.18108 58.9179,7.68594 59.5194,9.20403 C60.6154,11.9736 61.6045,14.7831 62.4689,17.6371 C62.5002,17.7483 62.5269,17.8616 62.5714,18.0128 C55.7411,18.4662 48.9374,18.9174 42.1113,19.3731 C42.0268,18.9797 41.9332,18.6063 41.8664,18.2262 Z M33.7439,5.25874 C28.8294,3.91395 23.9061,2.58918 18.9871,1.25779 C18.6396,1.16439 18.2875,1.0867 17.9401,1 L17.3653,1 C17.2851,1.02223 17.2049,1.05327 17.1247,1.06668 C15.6633,1.31556 14.6341,2.12025 14.0415,3.49388 C13.9969,3.5916 13.9613,3.6939 13.9168,3.79171 C12.8429,6.26565 11.8494,8.77514 10.9404,11.3135 C10.076,13.7029 9.26508,16.1079 8.61459,18.564 C7.65665,22.1737 7.16209,25.8657 6.83237,29.5799 C6.69872,31.0602 6.63631,32.5495 6.56507,34.0342 C6.44476,36.3948 6.48489,38.7532 6.74769,41.1048 C6.93924,42.8118 7.23333,44.4945 7.72348,46.1393 C8.20912,47.7663 8.85962,49.32 9.84433,50.7137 C10.4013,51.5094 11.0385,52.2296 11.885,52.7253 C11.9029,52.7342 11.9073,52.7608 11.9206,52.7965 C10.0404,59.4868 8.15122,66.1885 6.25763,72.9033 C6.15518,72.8811 6.09277,72.87 6.03037,72.8544 C4.98775,72.5832 3.94522,72.3209 2.91145,72.0408 C2.0382,71.803 1.30744,72.3498 1.1203,72.9921 C1.10245,73.0721 1.04013,73.1388 1,73.2122 L1,73.6657 C1.03562,73.7167 1.0891,73.7634 1.10696,73.8213 C1.28958,74.4325 1.71741,74.7437 2.30992,74.897 C5.58477,75.744 8.85962,76.6041 12.1345,77.4599 C12.5533,77.5688 12.9765,77.6888 13.3998,77.7889 C14.3444,78.0089 15.1999,77.3488 15.2087,76.3974 C15.2177,75.7107 14.7899,75.1482 14.1038,74.9637 C12.9365,74.6526 11.7736,74.3569 10.6106,74.0524 C10.0938,73.9169 9.58587,73.7813 9.04224,73.6367 C10.976,66.7774 12.9008,59.9402 14.8256,53.1186 C15.0929,53.0697 15.3245,53.0319 15.5518,52.9831 C16.786,52.7252 17.8642,52.1407 18.8712,51.3937 C20.0831,50.4935 21.1213,49.4133 22.0703,48.2463 C24.3025,45.5057 26.1649,42.5205 27.7823,39.3754 C29.4666,36.0835 30.8878,32.6694 32.1933,29.2063 C33.3919,26.0278 34.5102,22.8226 35.1696,19.4707 C35.8113,16.2255 36.4439,12.9825 36.6488,9.67517 C36.6755875,9.2573 36.7023,8.82603 36.6222,8.41928 C36.3103,6.77692 35.348,5.69433 33.7439,5.25874 Z M33.8018,9.13515 C33.7261,10.0042 33.6726,10.8756 33.5746,11.7424 C33.334,13.7629 32.9731,15.7655 32.5765,17.7615 C32.5543,17.8772 32.5232,17.9927 32.4919,18.1395 C25.6971,17.6883 18.9336,17.2393 12.1433,16.7881 C12.2146,16.5502 12.2681,16.3457 12.3349,16.1412 C13.5601,12.3514 14.9681,8.63509 16.5454,4.98304 C16.5944,4.87412 16.639,4.7652 16.6835,4.65628 C16.9152,4.08284 17.3742,3.84498 17.9667,3.99614 C18.4345,4.11397 18.8935,4.24512 19.3569,4.36956 C23.8793,5.59432 28.3972,6.81899 32.9152,8.04154 C33.1736,8.11042 33.4008,8.20602 33.5746,8.41496 C33.7439,8.62398 33.8241,8.86404 33.8018,9.13515 Z" id="path-4"></path>
    </defs>
    <g id="画板" stroke="none" stroke-width="1" fill="none" fill-rule="evenodd">
        <g id="Vector" transform="translate(2.000000, 1.000000)">
            <mask id="mask-2" fill="white">
                <use xlink:href="#path-1"></use>
            </mask>
            <g id="矩形"></g>
            <path d="M73.8441,72.9011 C73.5233,72.3055 72.8683,72.0298 72.1777,72.2076 C71.2553,72.441 70.3419,72.6855 69.4242,72.9233 C69.1077,73.0056 68.7914,73.0856 68.4661,73.1678 C66.528,66.3239 64.5987,59.5113 62.6651,52.6986 C62.8565,52.5474 63.0259,52.423 63.1907,52.2829 C63.9394,51.6428 64.5185,50.8603 65.022,50.0136 C65.775,48.7422 66.3096,47.3729 66.7107,45.9482 C67.5171,43.0985 67.8068,40.1779 67.8557,37.2284 C67.8825,35.4057 67.8156,33.5852 67.6865,31.7671 C67.5885,30.3912 67.4858,29.0153 67.33,27.646 C67.1606,26.1591 66.9424,24.6786 66.7107,23.2006 C66.4255,21.3691 66.0289,19.562 65.5122,17.7817 C64.0863,12.8782 62.2818,8.11501 60.259,3.43611 C60.1788,3.2494 60.0807,3.06931 59.9694,2.89812 C59.1006,1.54672 57.4208,0.762051 55.5762,1.27561 C53.5356,1.84455 51.4904,2.38695 49.4454,2.94257 C46.4958,3.74056 43.5506,4.54295 40.6011,5.33423 C38.7743,5.82547 37.7272,7.44146 37.6872,8.96626 C37.6782,9.29743 37.7183,9.6308 37.7317,9.96427 C37.7986,11.2779 37.9589,12.5849 38.1683,13.8806 C38.4132,15.3988 38.6895,16.9147 38.9747,18.4262 C39.3133,20.191 39.6875,21.9492 40.2222,23.6674 C41.3717,27.3349 42.7396,30.918 44.2545,34.4455 C45.3818,37.0749 46.5937,39.6645 48.0552,42.125 C49.334,44.281 50.6929,46.3793 52.288,48.3131 C53.237,49.4667 54.2661,50.5448 55.4604,51.4405 C56.4717,52.1984 57.5634,52.7919 58.8064,53.052 C59.1317,53.1208 59.4569,53.1565 59.8179,53.2142 C61.7693,60.0936 63.7209,66.9886 65.677,73.8968 C65.4676,73.9546 65.2805,74.0057 65.0978,74.0524 C63.7076,74.417 62.3175,74.7748 60.9318,75.1482 C60.2946,75.3193 59.8847,75.8618 59.8713,76.4885 C59.858,77.1621 60.2232,77.6977 60.847,77.9288 C60.905,77.9511 60.9629,77.9755 61.0252,78 L61.6002,78 C62.1392,77.8511 62.6783,77.6933 63.222,77.551 C66.3988,76.7197 69.5756,75.8929 72.7569,75.0682 C73.2068,74.9526 73.5946,74.7527 73.8263,74.328 C73.8975,74.2013 73.9422,74.0591 74,73.9235 L74,73.2766 C73.9464,73.1522 73.9064,73.0212 73.8441,72.9011 Z M41.8664,18.2262 C41.5411,16.3813 41.1936,14.5409 40.9129,12.6894 C40.7437,11.5624 40.6679,10.42 40.5698,9.28411 C40.512,8.67072 40.8149,8.29051 41.4387,8.12162 C43.2075,7.64369 44.9764,7.16806 46.7452,6.68793 C49.8864,5.83888 53.0321,4.98754 56.1777,4.1362 C56.338,4.09395 56.5074,4.0473 56.6723,4.04059 C57.1312,4.01837 57.4697,4.24071 57.6525,4.67189 C58.2763,6.18108 58.9179,7.68594 59.5194,9.20403 C60.6154,11.9736 61.6045,14.7831 62.4689,17.6371 C62.5002,17.7483 62.5269,17.8616 62.5714,18.0128 C55.7411,18.4662 48.9374,18.9174 42.1113,19.3731 C42.0268,18.9797 41.9332,18.6063 41.8664,18.2262 Z M33.7439,5.25874 C28.8294,3.91395 23.9061,2.58918 18.9871,1.25779 C18.6396,1.16439 18.2875,1.0867 17.9401,1 L17.3653,1 C17.2851,1.02223 17.2049,1.05327 17.1247,1.06668 C15.6633,1.31556 14.6341,2.12025 14.0415,3.49388 C13.9969,3.5916 13.9613,3.6939 13.9168,3.79171 C12.8429,6.26565 11.8494,8.77514 10.9404,11.3135 C10.076,13.7029 9.26508,16.1079 8.61459,18.564 C7.65665,22.1737 7.16209,25.8657 6.83237,29.5799 C6.69872,31.0602 6.63631,32.5495 6.56507,34.0342 C6.44476,36.3948 6.48489,38.7532 6.74769,41.1048 C6.93924,42.8118 7.23333,44.4945 7.72348,46.1393 C8.20912,47.7663 8.85962,49.32 9.84433,50.7137 C10.4013,51.5094 11.0385,52.2296 11.885,52.7253 C11.9029,52.7342 11.9073,52.7608 11.9206,52.7965 C10.0404,59.4868 8.15122,66.1885 6.25763,72.9033 C6.15518,72.8811 6.09277,72.87 6.03037,72.8544 C4.98775,72.5832 3.94522,72.3209 2.91145,72.0408 C2.0382,71.803 1.30744,72.3498 1.1203,72.9921 C1.10245,73.0721 1.04013,73.1388 1,73.2122 L1,73.6657 C1.03562,73.7167 1.0891,73.7634 1.10696,73.8213 C1.28958,74.4325 1.71741,74.7437 2.30992,74.897 C5.58477,75.744 8.85962,76.6041 12.1345,77.4599 C12.5533,77.5688 12.9765,77.6888 13.3998,77.7889 C14.3444,78.0089 15.1999,77.3488 15.2087,76.3974 C15.2177,75.7107 14.7899,75.1482 14.1038,74.9637 C12.9365,74.6526 11.7736,74.3569 10.6106,74.0524 C10.0938,73.9169 9.58587,73.7813 9.04224,73.6367 C10.976,66.7774 12.9008,59.9402 14.8256,53.1186 C15.0929,53.0697 15.3245,53.0319 15.5518,52.9831 C16.786,52.7252 17.8642,52.1407 18.8712,51.3937 C20.0831,50.4935 21.1213,49.4133 22.0703,48.2463 C24.3025,45.5057 26.1649,42.5205 27.7823,39.3754 C29.4666,36.0835 30.8878,32.6694 32.1933,29.2063 C33.3919,26.0278 34.5102,22.8226 35.1696,19.4707 C35.8113,16.2255 36.4439,12.9825 36.6488,9.67517 C36.6755875,9.2573 36.7023,8.82603 36.6222,8.41928 C36.3103,6.77692 35.348,5.69433 33.7439,5.25874 Z M33.8018,9.13515 C33.7261,10.0042 33.6726,10.8756 33.5746,11.7424 C33.334,13.7629 32.9731,15.7655 32.5765,17.7615 C32.5543,17.8772 32.5232,17.9927 32.4919,18.1395 C25.6971,17.6883 18.9336,17.2393 12.1433,16.7881 C12.2146,16.5502 12.2681,16.3457 12.3349,16.1412 C13.5601,12.3514 14.9681,8.63509 16.5454,4.98304 C16.5944,4.87412 16.639,4.7652 16.6835,4.65628 C16.9152,4.08284 17.3742,3.84498 17.9667,3.99614 C18.4345,4.11397 18.8935,4.24512 19.3569,4.36956 C23.8793,5.59432 28.3972,6.81899 32.9152,8.04154 C33.1736,8.11042 33.4008,8.20602 33.5746,8.41496 C33.7439,8.62398 33.8241,8.86404 33.8018,9.13515 Z" id="形状" stroke="url(#linearGradient-3)" stroke-width="2" mask="url(#mask-2)"></path>
            <mask id="mask-5" fill="white">
                <use xlink:href="#path-4"></use>
            </mask>
            <g id="形状"></g>
        </g>
    </g>
</svg>