<svg width="27" height="18" viewBox="0 0 27 18" fill="none" xmlns="http://www.w3.org/2000/svg">
<path fill-rule="evenodd" clip-rule="evenodd" d="M26.6916 9.76815L18.8558 17.8443C18.6544 18.0519 18.3264 18.0519 18.125 17.8443L18.1176 17.8367C17.4997 17.1999 17.4997 16.1687 18.1176 15.5319L23.4846 10H0.999999C0.447714 10 0 9.55229 0 9C0 8.44771 0.447715 8 1 8H23.4838L18.1176 2.46893C17.4997 1.83214 17.4997 0.799795 18.1176 0.163002L18.125 0.156482C18.3264 -0.0521605 18.6544 -0.0521605 18.8558 0.156482L26.6916 8.23158C27.1028 8.65647 27.1028 9.34434 26.6916 9.76815Z" fill="#00F3AB"/>
</svg>
