<?xml version="1.0" encoding="UTF-8"?>
<svg width="124px" height="119px" viewBox="0 0 124 119" version="1.1" xmlns="http://www.w3.org/2000/svg" xmlns:xlink="http://www.w3.org/1999/xlink">
    <title>画板</title>
    <defs>
        <linearGradient x1="89.4529851%" y1="7.53383229%" x2="-27.0028544%" y2="125.968463%" id="linearGradient-1">
            <stop stop-color="#D749FF" offset="0%"></stop>
            <stop stop-color="#FF0171" offset="100%"></stop>
        </linearGradient>
        <filter x="-4.0%" y="-4.0%" width="108.0%" height="108.0%" filterUnits="objectBoundingBox" id="filter-2">
            <feGaussianBlur stdDeviation="0.8" in="SourceGraphic"></feGaussianBlur>
        </filter>
    </defs>
    <g id="画板" stroke="none" stroke-width="1" fill="none" fill-rule="evenodd">
        <g id="Group-37" transform="translate(-0.000000, 12.000000)">
            <ellipse id="Oval-Copy-9" fill="url(#linearGradient-1)" filter="url(#filter-2)" cx="93.9486301" cy="64.0120968" rx="30.0513699" ry="29.9395161"></ellipse>
            <circle id="Oval" fill-opacity="0.05" fill="#FFFFFF" cx="45.6882521" cy="49.9516129" r="45"></circle>
            <g id="mubiao" transform="translate(0.000000, 2.951613)" fill="#FFFFFF" fill-rule="nonzero">
                <path d="M44.9580796,2.09047276 C48.3728026,2.09047276 51.7373399,2.47102009 55.0119609,3.21956915 C56.1045488,3.46907164 56.9810238,4.28246715 57.3112262,5.35335744 C57.6414287,6.42424773 57.3751931,7.58993909 56.6128077,8.41132686 C55.8504223,9.23271463 54.7077117,9.58501046 53.6151238,9.33550792 C50.7750665,8.68764585 47.8711038,8.36150019 44.9580796,8.36323048 C23.593582,8.36323048 6.27322042,25.6823145 6.27322042,47.0452364 C6.27322042,68.4081583 23.593582,85.7272423 44.9580796,85.7272423 C66.3225773,85.7272423 83.642939,68.4081582 83.642939,47.0452364 C83.642939,44.1514042 83.3250958,41.2993904 82.7019559,38.5268315 C82.4561703,37.4335772 82.8123423,36.2922532 83.6363053,35.5327852 C84.4602683,34.7733173 85.6268428,34.5110865 86.6965913,34.8448728 C87.7663399,35.1786591 88.5767424,36.0577523 88.822528,37.1510065 C89.5481305,40.375204 89.9161594,43.6872201 89.9161594,47.0452364 C89.9161594,71.8728115 69.7874861,92 44.9580796,92 C20.1286732,92 0,71.8728115 0,47.0452364 C0,22.2176614 20.1286732,2.09047276 44.9580796,2.09047276 Z M44.9580796,26.136044 C46.6903816,26.136044 48.0946899,27.5402486 48.0946899,29.2724228 C48.0946899,31.004597 46.6903816,32.4088017 44.9580796,32.4088017 C36.8740037,32.4088017 30.3205654,38.9617567 30.3205654,47.0452364 C30.3205655,55.128716 36.8740038,61.681671 44.9580797,61.681671 C53.0421556,61.681671 59.595594,55.128716 59.595594,47.0452364 C59.595594,45.3130622 60.9999023,43.9088576 62.7322042,43.9088576 C64.4645062,43.9088576 65.8688145,45.3130622 65.8688145,47.0452364 C65.8688145,58.5933834 56.5070785,67.9544288 44.9580796,67.9544288 C33.4090807,67.9544288 24.0473449,58.5933834 24.0473449,47.0452364 C24.0473449,35.4970895 33.4090808,26.136044 44.9580796,26.136044 L44.9580796,26.136044 Z M76.6064767,0.612192826 C76.8361036,0.841104798 77.0093464,1.12027705 77.1125165,1.42765133 L80.1571194,10.5461502 C80.3647551,11.1707301 80.854381,11.6610945 81.4786779,11.869702 L90.5727565,14.8952621 C91.2593317,15.1251102 91.7781412,15.6937423 91.9442106,16.3984204 C92.1102799,17.1030984 91.8999742,17.8435335 91.3882751,18.3557335 L76.955686,32.7914399 C76.3950957,33.3515678 75.5660088,33.5466804 74.8144268,33.2953515 L66.0653753,30.3722464 L52.3834816,44.0552219 C51.5908418,44.8478032 50.4355441,45.1573415 49.352778,44.8672366 C48.2700119,44.5771318 47.4242753,43.7314575 47.134149,42.6487713 C46.8440228,41.5660851 47.1535839,40.4108726 47.9462237,39.6182913 L61.6197531,25.9478612 L58.7047967,17.1869097 C58.4557114,16.4362316 58.6515435,15.6092661 59.2108364,15.0499902 L73.6496988,0.612192826 C74.4662627,-0.204064275 75.7899128,-0.204064275 76.6064767,0.612192826 L76.6064767,0.612192826 Z M71.8241917,11.3093357 L65.4715104,17.6594574 L67.6838662,24.3023078 L74.3460263,26.5291368 L80.6882521,20.1873788 L78.0200424,19.2987381 C75.6856452,18.5218243 73.8117143,16.7566352 72.8969124,14.4728965 L72.7275354,14.0128943 L71.8241917,11.3093357 L71.8241917,11.3093357 Z" id="Shape"></path>
            </g>
            <g id="Group-56" transform="translate(104.232877, 10.379032) scale(-1, -1) translate(-104.232877, -10.379032) translate(87.404110, 0.000000)" fill="#9DAFBE">
                <ellipse id="Oval-Copy-13" cx="1.20205479" cy="9.97983871" rx="1.20205479" ry="1.19758065"></ellipse>
                <ellipse id="Oval-Copy-12" cx="12.4212329" cy="9.97983871" rx="1.20205479" ry="1.19758065"></ellipse>
                <ellipse id="Oval-Copy-25" cx="1.20205479" cy="1.19758065" rx="1.20205479" ry="1.19758065"></ellipse>
                <ellipse id="Oval-Copy-24" cx="12.4212329" cy="1.19758065" rx="1.20205479" ry="1.19758065"></ellipse>
                <ellipse id="Oval-Copy-19" cx="23.640411" cy="9.97983871" rx="1.20205479" ry="1.19758065"></ellipse>
                <ellipse id="Oval-Copy-16" cx="1.20205479" cy="19.5604839" rx="1.20205479" ry="1.19758065"></ellipse>
                <ellipse id="Oval-Copy-15" cx="12.4212329" cy="19.5604839" rx="1.20205479" ry="1.19758065"></ellipse>
                <ellipse id="Oval-Copy-20" cx="23.640411" cy="19.5604839" rx="1.20205479" ry="1.19758065"></ellipse>
                <ellipse id="Oval-Copy-21" cx="32.4554795" cy="19.5604839" rx="1.20205479" ry="1.19758065"></ellipse>
            </g>
        </g>
    </g>
</svg>