<?xml version="1.0" encoding="UTF-8"?>
<svg width="124px" height="119px" viewBox="0 0 124 119" version="1.1" xmlns="http://www.w3.org/2000/svg" xmlns:xlink="http://www.w3.org/1999/xlink">
    <title>画板</title>
    <defs>
        <linearGradient x1="10.6210909%" y1="0%" x2="92.1155263%" y2="100%" id="linearGradient-1">
            <stop stop-color="#0093ED" offset="0%"></stop>
            <stop stop-color="#00F3AB" offset="100%"></stop>
        </linearGradient>
        <filter x="-4.0%" y="-4.0%" width="108.0%" height="108.0%" filterUnits="objectBoundingBox" id="filter-2">
            <feGaussianBlur stdDeviation="0.8" in="SourceGraphic"></feGaussianBlur>
        </filter>
    </defs>
    <g id="画板" stroke="none" stroke-width="1" fill="none" fill-rule="evenodd">
        <g id="Group-2-Copy" transform="translate(7.000000, 6.000000)">
            <ellipse id="Oval" fill="url(#linearGradient-1)" filter="url(#filter-2)" cx="30.0531915" cy="76.8979592" rx="30.0531915" ry="30.1020408"></ellipse>
            <g id="a-kaoshilianxi" transform="translate(26.106383, 0.000000)" fill="#FFFFFF" fill-rule="nonzero">
                <path d="M62.25,0 C73.7102249,0 83,9.38038092 83,20.9523809 L83,67.0476191 C83,78.6196191 73.710225,88 62.25,88 L20.75,88 C9.28977506,88 0,78.6196191 0,67.0476191 L0,20.9523809 C0,9.38038092 9.28977506,0 20.75,0 L62.25,0 Z" id="Shape" fill-opacity="0.05"></path>
                <path d="M62.25,0 C73.7102249,0 83,9.38038092 83,20.9523809 L83,67.0476191 C83,78.6196191 73.710225,88 62.25,88 L20.75,88 C9.28977506,88 0,78.6196191 0,67.0476191 L0,20.9523809 C0,9.38038092 9.28977506,0 20.75,0 L62.25,0 Z M62.25,7.33333337 L20.75,7.33333337 C13.4890724,7.33333337 7.53107634,13.1371568 7.27079999,20.4641905 L7.26250003,20.9523809 L7.26250003,67.0476191 C7.26250003,74.3793647 13.0102639,80.3954708 20.266525,80.6582857 L20.75,80.6666666 L62.25,80.6666666 C69.5109276,80.6666666 75.4689237,74.8628432 75.7292,67.5358095 L75.7375,67.0476191 L75.7375,20.9523809 C75.7375,13.6206353 69.9897361,7.60452918 62.733475,7.34171429 L62.25,7.33333337 Z" id="Shape"></path>
                <path d="M56.025,22.5238095 C57.9716861,22.5246933 59.5713756,24.075482 59.6515373,26.0394877 C59.731699,28.0034934 58.2638122,29.6819408 56.3238,29.8445714 L56.025,29.8571429 L26.975,29.8571429 C25.0283139,29.8562591 23.4286244,28.3054703 23.3484627,26.3414646 C23.268301,24.3774589 24.7361878,22.6990115 26.6762,22.5363809 L26.975,22.5238095 L56.025,22.5238095 Z M53.2611,39.5266666 C54.519603,38.0329706 56.7192922,37.8036374 58.2534925,39.0061744 C59.7876928,40.2087114 60.1131954,42.4173407 58.99225,44.0188571 L58.7889,44.2828571 L41.81125,64.3929523 C40.58973,65.8387061 38.4767034,66.1024547 36.9433,65.0005714 L36.68185,64.7952381 L24.6095,54.3232381 C23.1281882,53.0483613 22.9057667,50.8208764 24.1052244,49.2730691 C25.3046822,47.7252617 27.4994094,47.4076389 29.081125,48.5529523 L29.3405,48.7603809 L38.64895,56.8312381 L53.2611,39.5245714 L53.2611,39.5266666 Z" id="Shape"></path>
            </g>
            <g id="Group-38" transform="translate(85.546099, 100.979592) scale(-1, 1) translate(-85.546099, -100.979592) translate(63.106383, 94.959184)" fill="#9DAFBE">
                <ellipse id="Oval-Copy-14" cx="1.20212766" cy="1.20408163" rx="1.20212766" ry="1.20408163"></ellipse>
                <ellipse id="Oval-Copy-13" cx="12.4219858" cy="1.20408163" rx="1.20212766" ry="1.20408163"></ellipse>
                <ellipse id="Oval-Copy-12" cx="23.641844" cy="1.20408163" rx="1.20212766" ry="1.20408163"></ellipse>
                <ellipse id="Oval-Copy-19" cx="34.8617021" cy="1.20408163" rx="1.20212766" ry="1.20408163"></ellipse>
                <ellipse id="Oval-Copy-17" cx="1.20212766" cy="10.8367347" rx="1.20212766" ry="1.20408163"></ellipse>
                <ellipse id="Oval-Copy-16" cx="12.4219858" cy="10.8367347" rx="1.20212766" ry="1.20408163"></ellipse>
                <ellipse id="Oval-Copy-15" cx="23.641844" cy="10.8367347" rx="1.20212766" ry="1.20408163"></ellipse>
                <ellipse id="Oval-Copy-20" cx="34.8617021" cy="10.8367347" rx="1.20212766" ry="1.20408163"></ellipse>
                <ellipse id="Oval-Copy-21" cx="43.677305" cy="10.8367347" rx="1.20212766" ry="1.20408163"></ellipse>
            </g>
        </g>
    </g>
</svg>