<?xml version="1.0" encoding="UTF-8"?>
<svg width="86px" height="83px" viewBox="0 0 86 83" version="1.1" xmlns="http://www.w3.org/2000/svg" xmlns:xlink="http://www.w3.org/1999/xlink">
    <title>画板</title>
    <defs>
        <linearGradient x1="16.8758026%" y1="0%" x2="85.4261466%" y2="100%" id="linearGradient-1">
            <stop stop-color="#0093ED" offset="0%"></stop>
            <stop stop-color="#00F3AB" offset="100%"></stop>
        </linearGradient>
        <linearGradient x1="10.4929716%" y1="6.44523238%" x2="92.2525491%" y2="93.5547676%" id="linearGradient-2">
            <stop stop-color="#0093ED" offset="0%"></stop>
            <stop stop-color="#00F3AB" offset="100%"></stop>
        </linearGradient>
    </defs>
    <g id="画板" stroke="none" stroke-width="1" fill="none" fill-rule="evenodd">
        <g id="xunzhang" transform="translate(5.000000, 0.000000)">
            <path d="M38,0 C58.9868571,0 76,16.6956958 76,37.2909107 C76,45.8136052 73.0865093,53.6685941 68.1838012,59.9488985 L68.1828571,75.9662358 C68.1828538,76.6260938 68.0882081,77.282668 67.9017043,77.9166438 C66.815046,81.610608 62.9110062,83.7562884 59.143672,82.7536184 L59.0296248,82.7223081 L42.433113,78.0203938 C39.7327134,77.2553347 36.8689817,77.2400391 34.1602534,77.9762074 L34.0011727,78.0203938 L17.4046609,82.7223081 C16.7586304,82.9053175 16.0895597,82.9981833 15.4171429,82.9981721 C11.4991304,82.9981721 8.31562733,79.912535 8.25237267,76.0824914 L8.25142857,75.9662358 L8.25048447,60.4946977 C3.08607205,54.1264838 0,46.0622347 0,37.2909107 C0,16.6956958 17.0131429,0 38,0 Z M62.5378981,65.7659404 C58.1031801,69.4499928 52.7963031,72.1541633 46.964318,73.5382998 L60.5955081,77.3992831 C61.4020522,77.6278111 62.2446609,77.1714036 62.4774758,76.3799391 C62.5105193,76.267852 62.5298733,76.1524301 62.5354435,76.0360818 L62.5371429,75.9662358 L62.5378981,65.7659404 Z M13.896482,66.1213769 L13.8971429,75.9662358 C13.8971429,76.7900296 14.5776497,77.4578278 15.4171429,77.4578278 C15.536005,77.4578278 15.654395,77.444118 15.7698584,77.4170688 L15.8387776,77.3992831 L29.2735006,73.5938802 C23.5376248,72.2711599 18.3027826,69.673148 13.896482,66.1213769 L13.896482,66.1213769 Z M38,5.54034429 C20.1312199,5.54034429 5.64571429,19.7556733 5.64571429,37.2910033 C5.64571429,54.8264259 20.1312199,69.0415697 38,69.0415697 C55.8687801,69.0415697 70.3542857,54.8263333 70.3542857,37.2909107 C70.3542857,19.7555807 55.8687801,5.54034429 38,5.54034429 L38,5.54034429 Z M35.4910559,21.1097038 C36.2340621,19.6321922 38.0569292,19.0255325 39.5625789,19.754747 C40.1621274,20.0451455 40.6473867,20.5213741 40.9432298,21.1097038 L45.196964,29.5680177 L54.7088596,30.9243641 C56.3479106,31.1580796 57.4903652,32.634387 57.2890832,34.2396408 L57.2801143,34.3055962 C57.1839778,34.954869 56.8723979,35.5549436 56.393605,36.0129326 L49.5107429,42.5966131 L51.1356323,51.8934496 C51.4155578,53.4950907 50.338246,55.0173445 48.7210037,55.3260009 L48.6533118,55.3380433 C47.9943797,55.448968 47.3165564,55.3436413 46.7248,55.0383724 L38.2171429,50.6490051 L29.7094857,55.0382798 C28.2446211,55.7939876 26.4378037,55.2600455 25.6381516,53.8479335 L25.6040696,53.7858687 C25.2929805,53.2051333 25.1856378,52.5399842 25.2986534,51.893357 L26.923354,42.5965205 L20.0405863,36.01284 C18.8568745,34.8804825 18.8147677,33.0319719 19.9323925,31.8491289 L19.9856398,31.794197 C20.4522971,31.3244141 21.0637868,31.0186904 21.7254261,30.9243641 L31.2370385,29.5679251 L35.4910559,21.1097038 Z" id="Shape" stroke="url(#linearGradient-1)" stroke-width="0.96" fill-rule="nonzero"></path>
            <polygon id="Path" fill="url(#linearGradient-2)" points="38.2171429 28.2077807 34.9864348 34.6319456 27.7621863 35.6621278 32.9896646 40.6625088 31.7554435 47.7233468 38.2171429 44.3897286 44.6786534 47.7233468 43.4447155 40.6626014 48.6719106 35.6622205 41.4479453 34.6319456"></polygon>
        </g>
    </g>
</svg>