<?xml version="1.0" encoding="UTF-8"?>
<svg width="80px" height="80px" viewBox="0 0 80 80" version="1.1" xmlns="http://www.w3.org/2000/svg" xmlns:xlink="http://www.w3.org/1999/xlink">
    <title>画板</title>
    <defs>
        <linearGradient x1="10.4929716%" y1="0%" x2="92.2525491%" y2="100%" id="linearGradient-1">
            <stop stop-color="#0093ED" offset="0%"></stop>
            <stop stop-color="#00F3AB" offset="100%"></stop>
        </linearGradient>
        <linearGradient x1="10.4929716%" y1="41.6322314%" x2="92.2525491%" y2="58.3677686%" id="linearGradient-2">
            <stop stop-color="#0093ED" offset="0%"></stop>
            <stop stop-color="#00F3AB" offset="100%"></stop>
        </linearGradient>
    </defs>
    <g id="画板" stroke="none" stroke-width="1" fill="none" fill-rule="evenodd">
        <g id="huochepiao1" transform="translate(1.000000, 1.000000)">
            <path d="M68.8073126,0 L9.19268739,0 C4.11627057,0 0,4.11348441 0,9.18646518 L0,53.6510467 C0,58.7240274 4.11627057,62.8375119 9.19268739,62.8375119 L12.9572212,62.8375119 C14.9107861,62.8375119 16.4936015,64.4192559 16.4936015,66.3714985 L16.4936015,74.4607178 C16.4936015,77.3439569 19.7638026,79.0159505 22.1023766,77.320207 L41.1769653,63.5120093 C41.7806216,63.075011 42.5078611,62.8422618 43.2493601,62.8422618 L68.8073126,62.8422618 C73.8837294,62.8422618 78,58.7287774 78,53.6557967 L78,9.18646518 C78,4.11348441 73.8837294,0 68.8073126,0 L68.8073126,0 Z" id="Shape" stroke="url(#linearGradient-1)" fill-opacity="0.1" fill="url(#linearGradient-1)" fill-rule="nonzero"></path>
            <path d="M59.700581,35.1114574 C53.5765868,41.6731495 46.774782,45 39.4942439,45 L39.2525073,45 C27.1941161,44.8789356 18.5958765,35.4455952 18.2356416,35.0436613 C16.4818661,33.0921027 16.6098443,30.0558068 18.5247775,28.2640532 C20.4323882,26.4773367 23.395012,26.6029112 25.1512047,28.5449227 C25.274443,28.6805148 31.5027158,35.3584288 39.4136651,35.402012 C44.0588,35.4262249 48.6043964,33.1017878 52.9082561,28.4868118 C54.699951,26.5691512 57.6718894,26.4965125 59.5489031,28.3270067 C61.4211769,30.1526583 61.4922759,33.1937968 59.700581,35.1114574 Z" id="Path" fill="url(#linearGradient-2)"></path>
        </g>
    </g>
</svg>