<?xml version="1.0" encoding="UTF-8"?>
<svg width="86px" height="83px" viewBox="0 0 86 83" version="1.1" xmlns="http://www.w3.org/2000/svg" xmlns:xlink="http://www.w3.org/1999/xlink">
    <title>画板</title>
    <defs>
        <linearGradient x1="10.4929716%" y1="5.8426477%" x2="92.2525491%" y2="94.1573523%" id="linearGradient-1">
            <stop stop-color="#0093ED" offset="0%"></stop>
            <stop stop-color="#00F3AB" offset="100%"></stop>
        </linearGradient>
        <linearGradient x1="10.4929716%" y1="8.88396246%" x2="92.2525491%" y2="91.1160375%" id="linearGradient-2">
            <stop stop-color="#0093ED" offset="0%"></stop>
            <stop stop-color="#00F3AB" offset="100%"></stop>
        </linearGradient>
    </defs>
    <g id="画板" stroke="none" stroke-width="1" fill="none" fill-rule="evenodd">
        <g id="jiangbei-2" transform="translate(2.000000, 3.000000)">
            <path d="M17.9368928,0 C16.313349,0 14.7610069,0.674643492 13.6422031,1.86532704 C12.5233993,3.05601059 11.9360371,4.65895052 12.0172143,6.3 L12.1506072,9 L2.96428577,9 C2.17810831,9 1.42413063,9.31607049 0.868219206,9.87867962 C0.312307785,10.4412888 0,11.2043505 0,12 L0,22.38 C0.000863429602,29.9002592 3.97509432,36.8459853 10.4194643,40.59 L13.9054643,42.615 C15.6030846,55.3217079 25.8953255,65.068524 38.5357143,65.94 L38.5357143,72 L20.75,72 C19.1128703,72 17.7857144,73.3431458 17.7857144,75 C17.7857144,76.6568543 19.1128703,78 20.75,78 L62.25,78 C63.8871297,78 65.2142856,76.6568543 65.2142856,75 C65.2142856,73.3431458 63.8871297,72 62.25,72 L44.4642857,72 L44.4642857,65.94 C57.0909802,65.0705754 67.3774495,55.3443422 69.0915714,42.654 L72.6190714,40.593 C79.0421798,36.842796 83,29.9086965 83,22.404 L83,12 C83,11.2043505 82.6876922,10.4412888 82.1317808,9.87867962 C81.5758694,9.31607049 80.8218917,9 80.0357142,9 L70.8493928,9 L70.9827857,6.3 C71.0639376,4.6594707 70.4769736,3.05700238 69.3588187,1.86641316 C68.2406637,0.675823941 66.6891002,0.00123064637 65.0660714,0 L17.9339286,0 L17.9368928,0 Z M70.5529643,15 L77.0714285,15 L77.0714285,22.404 C77.0700714,27.7640856 74.2427171,32.7161013 69.6547857,35.394 L69.5421428,35.463 L70.5529643,15 Z M41.5,59.9999999 L40.3439286,59.9999999 C29.2875704,59.9999999 20.1734251,51.2255717 19.6206072,40.05 L17.9339286,5.99999995 L65.0660714,5.99999995 L63.3823572,40.05 C62.829482,51.22673 53.7135756,60.0012078 42.6560714,59.9999999 L41.5,59.9999999 L41.5,59.9999999 Z M13.4578572,35.436 L13.3718929,35.388 C8.76726406,32.7132362 5.9279973,27.7501696 5.92857137,22.377 L5.92857137,15 L12.4470357,15 L13.4548928,35.436 L13.4578572,35.436 Z M41.5,12 C42.6194296,12 43.6433638,12.6382729 44.1471072,13.65 L47.9236071,21.231 L56.689,22.335 C57.8418393,22.4801492 58.8046391,23.293457 59.1518435,24.4154425 C59.4990478,25.537428 59.1666508,26.7612574 58.3015714,27.546 L51.9935714,33.279 L53.5705714,41.424 C53.7898991,42.5528499 53.3520327,43.7092125 52.4434505,44.4006165 C51.5348683,45.0920205 50.3156222,45.1966712 49.3049643,44.67 L41.5,40.611 L33.6950357,44.67 C32.6843778,45.1966712 31.4651317,45.0920205 30.5565495,44.4006165 C29.6479673,43.7092125 29.2101009,42.5528499 29.4294286,41.424 L31.0064286,33.279 L24.6984286,27.546 C23.8333492,26.7612574 23.5009522,25.537428 23.8481565,24.4154425 C24.1953609,23.293457 25.1581607,22.4801492 26.311,22.335 L35.0763929,21.231 L38.8528928,13.65 C39.3566362,12.6382729 40.3805704,12 41.5,12 Z" id="Shape" stroke="url(#linearGradient-1)" stroke-width="0.96" fill-rule="nonzero"></path>
            <path d="M41.5,21.7113402 L39.6651027,25.315999 C39.2212258,26.1872202 38.3679396,26.7819731 37.3899481,26.9018149 L33.5192308,27.3816559 L36.2375971,29.7954899 C37.0099342,30.4842597 37.3600056,31.5242067 37.1594779,32.5340944 L36.4385199,36.185567 L40.1496811,34.2983877 C40.9972315,33.8671811 42.0027685,33.8671811 42.8503189,34.2983877 L46.5614801,36.185567 L45.8405221,32.5340944 C45.6418196,31.5246247 45.9929499,30.4859754 46.7653576,29.7984158 L49.4807692,27.3816559 L45.6100519,26.9018149 C44.6320604,26.7819731 43.7787742,26.1872202 43.3348973,25.315999 L41.5,21.7113402 Z" id="Path" fill="url(#linearGradient-2)"></path>
        </g>
    </g>
</svg>