<?xml version="1.0" encoding="UTF-8"?>
<svg width="80px" height="80px" viewBox="0 0 80 80" version="1.1" xmlns="http://www.w3.org/2000/svg" xmlns:xlink="http://www.w3.org/1999/xlink">
    <title>画板</title>
    <defs>
        <linearGradient x1="10.4929716%" y1="40.6492904%" x2="92.2525491%" y2="59.3507096%" id="linearGradient-1">
            <stop stop-color="#0093ED" offset="0%"></stop>
            <stop stop-color="#00F3AB" offset="100%"></stop>
        </linearGradient>
        <linearGradient x1="10.4929716%" y1="2.55571017%" x2="92.2525491%" y2="97.4442898%" id="linearGradient-2">
            <stop stop-color="#0093ED" offset="0%"></stop>
            <stop stop-color="#00F3AB" offset="100%"></stop>
        </linearGradient>
        <linearGradient x1="10.4929716%" y1="4.65702896%" x2="92.2525491%" y2="95.342971%" id="linearGradient-3">
            <stop stop-color="#0093ED" offset="0%"></stop>
            <stop stop-color="#00F3AB" offset="100%"></stop>
        </linearGradient>
    </defs>
    <g id="画板" stroke="none" stroke-width="1" fill="none" fill-rule="evenodd">
        <g id="_ruanjianceshi" transform="translate(1.000000, 3.000000)" fill-rule="nonzero">
            <path d="M59.889375,35.628125 L18.110625,35.628125 C16.8429589,35.628125 15.8153125,36.6557714 15.8153125,37.9234375 C15.8153125,39.1911036 16.8429589,40.2187501 18.110625,40.2187501 L59.889375,40.2187501 C61.1570411,40.2187501 62.1846875,39.1911036 62.1846875,37.9234375 C62.1846875,36.6557714 61.1570411,35.628125 59.889375,35.628125 Z M59.889375,20.1662501 L18.110625,20.1662501 C16.8429589,20.1662501 15.8153125,21.1938965 15.8153125,22.4615625 C15.8153125,23.7292286 16.8429589,24.756875 18.110625,24.756875 L59.889375,24.756875 C61.1570411,24.756875 62.1846875,23.7292286 62.1846875,22.4615625 C62.1846875,21.1938965 61.1570411,20.1662501 59.889375,20.1662501 L59.889375,20.1662501 Z" id="Shape" stroke="url(#linearGradient-1)" fill-opacity="0.1" fill="url(#linearGradient-1)"></path>
            <path d="M27.77125,16.2987356 C26.5058276,16.2987356 25.48,17.3245776 25.48,18.5900001 L25.48,25.6018751 C25.48,26.8695412 26.5076464,27.8971876 27.7753125,27.8971876 C29.0429786,27.8971876 30.0706395,26.8695412 30.0706395,25.6018751 L30.0706395,18.5981251 C30.0727938,17.9876306 29.8312354,17.4015147 29.3995479,16.9698272 C28.9678604,16.5381397 28.3817445,16.2965813 27.77125,16.2987356 L27.77125,16.2987356 Z M50.951875,31.7606106 C49.6864526,31.7606106 48.660625,32.7864526 48.660625,34.051875 L48.660625,41.0556251 C48.660625,42.3232912 49.6882714,43.3509376 50.9559375,43.3509376 C52.2236036,43.3509376 53.2512645,42.3232912 53.2512645,41.0556251 L53.2512645,34.06 C53.2534187,33.4495056 53.0118603,32.8633897 52.5801729,32.4317022 C52.1484854,32.0000148 51.5623695,31.7584564 50.951875,31.7606106 L50.951875,31.7606106 Z" id="Shape" stroke="url(#linearGradient-2)" fill="url(#linearGradient-2)"></path>
            <path d="M66.5275,0 L11.4725,0 C5.13641318,0 0,5.13641326 0,11.4725 L0,48.18125 C0,54.5173368 5.13641318,59.6537501 11.4725,59.6537501 L66.5275,59.6537501 C72.8635868,59.6537501 78,54.5173368 78,48.18125 L78,11.4725 C78,5.13641326 72.8635868,0 66.5275,0 L66.5275,0 Z M73.409375,48.1731251 C73.409375,51.9738797 70.3282546,55.0550001 66.5275,55.0550001 L11.4725,55.0550001 C7.67174535,55.0550001 4.59062497,51.9738797 4.59062497,48.1731251 L4.59062497,11.4725 C4.59062497,7.67174544 7.67174535,4.59062506 11.4725,4.59062506 L66.5275,4.59062506 C70.3282546,4.59062506 73.409375,7.67174544 73.409375,11.4725 L73.409375,48.1731251 Z M7.499375,74.2787501 C6.15318091,74.2787501 5.06187499,73.1874442 5.06187499,71.8412501 C5.06187499,70.495056 6.15318091,69.4037501 7.499375,69.4037501 L70.500625,69.4037501 C71.8468191,69.4037501 72.938125,70.495056 72.938125,71.8412501 C72.938125,73.1874442 71.8468191,74.2787501 70.500625,74.2787501 L7.499375,74.2787501 Z" id="Shape" stroke="url(#linearGradient-3)" fill-opacity="0.1" fill="url(#linearGradient-3)"></path>
        </g>
    </g>
</svg>