<?xml version="1.0" encoding="UTF-8"?>
<svg width="80px" height="80px" viewBox="0 0 80 80" version="1.1" xmlns="http://www.w3.org/2000/svg" xmlns:xlink="http://www.w3.org/1999/xlink">
    <title>画板</title>
    <defs>
        <linearGradient x1="10.4929716%" y1="3.40723075%" x2="92.2525491%" y2="96.5927692%" id="linearGradient-1">
            <stop stop-color="#0093ED" offset="0%"></stop>
            <stop stop-color="#00F3AB" offset="100%"></stop>
        </linearGradient>
        <linearGradient x1="10.4929716%" y1="42.2015999%" x2="92.2525491%" y2="57.7984001%" id="linearGradient-2">
            <stop stop-color="#0093ED" offset="0%"></stop>
            <stop stop-color="#00F3AB" offset="100%"></stop>
        </linearGradient>
    </defs>
    <g id="画板" stroke="none" stroke-width="1" fill="none" fill-rule="evenodd">
        <g id="qiyeyunyingfenxi" transform="translate(1.000000, 2.000000)">
            <path d="M38.9889491,0 C40.3059588,0 41.3642698,1.06218852 41.3642698,2.38439872 L41.364,4.898 L70.6387866,4.89880823 C74.616546,4.89880823 77.8476283,8.06282164 77.994859,12.0255298 L78,12.2691225 L78,51.3698809 C78,55.4444204 74.7185265,58.738895 70.6608884,58.738895 L41.364,58.738 L41.364247,66.442687 C41.364247,66.6843722 41.3281412,66.9176245 41.2610293,67.1373442 C41.3533524,67.1483656 41.4457128,67.1674715 41.5371615,67.1921994 L54.2093175,70.6166848 C54.8213486,70.7805178 55.3430096,71.1812008 55.6591378,71.7302785 C55.975266,72.2793561 56.0598648,72.9316752 55.8942579,73.5432287 C55.5484291,74.7991333 54.252221,75.5583966 53.0002167,75.2112676 L39.0279534,71.450935 L24.9997833,75.2112676 C23.7343972,75.5544556 22.4301189,74.8080733 22.0849405,73.5432287 C21.9192889,72.9318522 22.00371,72.2796885 22.3195756,71.7306433 C22.6354412,71.1815981 23.1567896,70.7807987 23.7685807,70.6166848 L36.4420369,67.2130011 C36.5356208,67.1876958 36.6301595,67.1682782 36.7251321,67.1546798 C36.6532819,66.9317747 36.6149513,66.6917071 36.6149513,66.442687 L36.614,58.738 L7.34041171,58.738895 C3.28147346,58.738895 0,55.4444204 0,51.3698809 L0,12.2691225 C0,8.19328283 3.28147346,4.89880823 7.34041171,4.89880823 L36.614,4.898 L36.6149284,2.38439872 C36.6149284,1.06218852 37.6732394,0 38.9889491,0 Z M70.6387866,9.66760567 L7.34041171,9.66890578 C5.91549302,9.66890578 4.74929581,10.8390033 4.74929581,12.2691225 L4.74929581,51.3698809 C4.74929581,52.8000001 5.91549295,53.9700976 7.34041171,53.9700976 L70.6387866,53.9700976 C72.0637053,53.9700976 73.2299025,52.8 73.2299025,51.3698809 L73.2299025,12.2678224 C73.2299025,10.8377031 72.0637054,9.66760567 70.6387866,9.66760567 Z" id="Combined-Shape" stroke="url(#linearGradient-1)" fill-opacity="0.1" fill="url(#linearGradient-1)" fill-rule="nonzero"></path>
            <path d="M31.9482124,24.5907284 C32.553525,24.5907284 33.1588377,24.8215546 33.6208018,25.283207 L46.8220878,38.4817284 L59.6762731,25.9488625 C60.6193674,25.0389808 62.1121603,25.0389808 63.0552546,25.9475623 C63.5015421,26.3793798 63.7535168,26.9738013 63.7535168,27.5947996 C63.7535168,28.2157979 63.5015421,28.8102194 63.0552546,29.2420369 L48.5252438,43.4106176 C48.2151128,43.7093992 47.8455384,43.9099283 47.4556158,44.0122048 C47.4212218,44.0236223 47.3857144,44.0338404 47.349866,44.043252 C46.522986,44.2603389 45.6433068,44.0145166 45.0487541,43.4002167 L31.8930878,30.2297284 L18.3783315,43.4119177 C17.4781051,44.2792001 16.077017,44.3186221 15.1312577,43.5301835 L14.99935,43.4119177 C14.5530625,42.9801002 14.3010878,42.3856787 14.3010878,41.7646804 C14.3010878,41.1436821 14.5530625,40.5492606 14.99935,40.1174431 L30.2223186,25.2728061 C30.6943016,24.8184326 31.3038123,24.5914961 31.9131715,24.5919968 L31.9482124,24.5907284 Z" id="Combined-Shape" stroke="url(#linearGradient-2)" fill="url(#linearGradient-2)"></path>
        </g>
    </g>
</svg>