<?xml version="1.0" encoding="UTF-8"?>
<svg width="124px" height="119px" viewBox="0 0 124 119" version="1.1" xmlns="http://www.w3.org/2000/svg" xmlns:xlink="http://www.w3.org/1999/xlink">
    <title>画板</title>
    <defs>
        <linearGradient x1="50%" y1="0%" x2="50%" y2="100%" id="linearGradient-1">
            <stop stop-color="#FFAF42" offset="0%"></stop>
            <stop stop-color="#F7E800" offset="100%"></stop>
        </linearGradient>
        <filter x="-4.0%" y="-4.0%" width="108.0%" height="108.0%" filterUnits="objectBoundingBox" id="filter-2">
            <feGaussianBlur stdDeviation="0.8" in="SourceGraphic"></feGaussianBlur>
        </filter>
    </defs>
    <g id="画板" stroke="none" stroke-width="1" fill="none" fill-rule="evenodd">
        <g id="Group-34" transform="translate(2.000000, 10.000000)">
            <ellipse id="Oval-Copy-8" fill="url(#linearGradient-1)" filter="url(#filter-2)" cx="90.0980392" cy="29.9418605" rx="29.9019608" ry="29.9418605"></ellipse>
            <g id="Group-55" transform="translate(0.000000, 1.000000)" fill="#FFFFFF">
                <path d="M59.2038251,19.1296 C57.4855082,16.9344 56.5482445,13.4848 56.5482445,8.624 C59.2038251,9.0944 63.1090906,9.8784 65.2960392,12.0736 C67.4829879,14.7392 67.9516198,18.6592 67.9516198,21.3248 C64.983618,21.7952 61.3907737,21.3248 59.2038251,19.1296 Z" id="Path" fill-opacity="0.05"></path>
                <path d="M88.415211,27.44 C86.2282624,29.6352 82.3229969,30.576 78.8863632,30.8896 C79.3549951,26.9696 80.60468,23.0496 83.2602606,20.8544 C85.4472093,18.1888 88.8838429,17.4048 91.5394234,17.4048 C91.5394234,20.5408 91.0707916,24.9312 88.415211,27.44 L88.415211,27.44 Z" id="Path" fill-opacity="0.05"></path>
                <g id="grow" fill-rule="nonzero">
                    <path d="M93.7263721,70.8736 C91.5394234,63.8176 84.5099455,59.8976 77.6366782,61.6224 C72.794149,63.3472 66.233303,65.072 61.0783525,66.7968 C61.0783525,65.5424 60.6097206,64.1312 60.1410888,62.8768 C58.422772,58.4864 53.5802427,56.2912 49.6749772,56.2912 L34.0539152,56.2912 C33.1166515,56.2912 31.8669665,55.8208 30.6172816,54.5664 C28.8989647,52.8416 26.2433842,51.9008 23.5878037,51.9008 L11.4033753,51.9008 C4.84252923,52.3712 0,57.7024 0,64.288 L0,84.8288 C0,90.944 5.15495047,96.2752 11.4033753,96.2752 L26.5558054,96.2752 C28.2741223,96.2752 30.4610709,95.8048 32.1793878,94.5504 C36.5532851,97.216 41.7082356,98 47.0193967,98 C50.1436091,98 53.5802427,97.5296 56.2358233,96.7456 L84.9785774,87.9648 C94.195004,84.8288 95.4446889,76.5184 93.7263721,70.8736 L93.7263721,70.8736 Z M11.4033753,87.4944 C10.1536903,87.4944 8.74779473,86.24 8.74779473,84.3584 L8.74779473,63.8176 C8.74779473,62.5632 9.99747969,61.152 11.4033753,61.152 L24.0564355,61.152 C24.5250674,61.152 24.9936992,61.152 24.9936992,61.6224 C25.4623311,62.0928 25.930963,62.0928 26.2433842,62.5632 L26.2433842,87.4944 L11.4033753,87.4944 L11.4033753,87.4944 Z M82.3229969,79.968 L53.5802427,88.7488 C47.9566604,90.4736 41.3958144,90.0032 35.772232,87.024 L34.8349683,86.0832 L34.8349683,65.5424 L50.1436091,65.5424 C51.0808728,65.5424 52.3305578,66.0128 52.3305578,66.4832 C52.7991896,66.9536 51.8619259,68.208 51.393294,68.6784 C50.1436091,70.8736 47.9566604,72.128 47.9566604,75.264 C47.9566604,76.5184 48.8939241,78.4 50.1436091,78.7136 C51.8619259,79.184 53.5802427,78.7136 55.2985596,78.2432 C59.2038251,77.3024 63.5777224,76.048 67.4829879,74.7936 C71.8568853,73.5392 75.7621508,71.6576 80.1360482,70.8736 C82.3229969,69.9328 84.9785774,71.8144 85.2909986,74.3232 C86.2282624,76.5184 84.9785774,78.7136 82.3229969,79.968 L82.3229969,79.968 Z M99.8185863,14.4256 C99.3499545,11.2896 97.1630058,8.7808 94.195004,8.7808 C90.2897385,8.3104 82.4792075,8.7808 76.6994145,13.9552 L75.7621508,14.896 C74.8248871,11.76 74.043834,8.7808 71.3882534,6.5856 C66.233303,0.9408 58.2665613,0 53.5802427,0 C50.4560303,0 47.4880285,2.6656 47.4880285,6.1152 C47.0193967,10.976 47.4880285,19.6 52.3305578,25.4016 C56.7044551,30.2624 62.7966693,31.0464 67.1705667,31.0464 L69.3575154,31.0464 L69.3575154,52.9984 C69.3575154,55.664 71.0758322,57.3888 73.7314127,57.3888 C76.3869933,57.3888 78.1053101,55.664 78.1053101,52.9984 L78.1053101,39.8272 C82.9478393,39.3568 89.8211066,38.5728 94.195004,33.712 C100.287218,27.9104 100.287218,19.1296 99.8185863,14.4256 Z M59.2038251,19.1296 C57.4855082,16.9344 56.5482445,13.4848 56.5482445,8.624 C59.2038251,9.0944 63.1090906,9.8784 65.2960392,12.0736 C67.4829879,14.7392 67.9516198,18.6592 67.9516198,21.3248 C64.983618,21.7952 61.3907737,21.3248 59.2038251,19.1296 Z M88.415211,27.44 C86.2282624,29.6352 82.3229969,30.576 78.8863632,30.8896 C79.3549951,26.9696 80.60468,23.0496 83.2602606,20.8544 C85.4472093,18.1888 88.8838429,17.4048 91.5394234,17.4048 C91.5394234,20.5408 91.0707916,24.9312 88.415211,27.44 L88.415211,27.44 Z" id="Shape"></path>
                </g>
            </g>
            <g id="Group-2" transform="translate(20.065359, 23.437984) scale(-1, -1) translate(-20.065359, -23.437984) translate(8.901961, 3.875969)" fill="#9DAFBE">
                <ellipse id="Oval" cx="9.96732026" cy="9.98062016" rx="1.19607843" ry="1.19767442"></ellipse>
                <ellipse id="Oval-Copy-10" cx="21.130719" cy="9.98062016" rx="1.19607843" ry="1.19767442"></ellipse>
                <ellipse id="Oval-Copy-11" cx="9.96732026" cy="37.9263566" rx="1.19607843" ry="1.19767442"></ellipse>
                <ellipse id="Oval-Copy-18" cx="21.130719" cy="37.9263566" rx="1.19607843" ry="1.19767442"></ellipse>
                <ellipse id="Oval-Copy-14" cx="9.96732026" cy="19.5620155" rx="1.19607843" ry="1.19767442"></ellipse>
                <ellipse id="Oval-Copy-13" cx="21.130719" cy="19.5620155" rx="1.19607843" ry="1.19767442"></ellipse>
                <ellipse id="Oval-Copy-17" cx="9.96732026" cy="29.1434109" rx="1.19607843" ry="1.19767442"></ellipse>
                <ellipse id="Oval-Copy-23" cx="1.19607843" cy="37.9263566" rx="1.19607843" ry="1.19767442"></ellipse>
                <ellipse id="Oval-Copy-22" cx="1.19607843" cy="29.1434109" rx="1.19607843" ry="1.19767442"></ellipse>
                <ellipse id="Oval-Copy-16" cx="21.130719" cy="29.1434109" rx="1.19607843" ry="1.19767442"></ellipse>
                <ellipse id="Oval-Copy-21" cx="21.130719" cy="1.19767442" rx="1.19607843" ry="1.19767442"></ellipse>
            </g>
        </g>
    </g>
</svg>