<svg width="577" height="216" viewBox="0 0 577 216" fill="none" xmlns="http://www.w3.org/2000/svg">
<path fill-rule="evenodd" clip-rule="evenodd" d="M535.516 33.6648V0H576.024V33.6648H535.516ZM535.516 213.512V44.058H576.024V213.512H535.516ZM52.3273 215.319C34.1477 215.319 21.0411 210.8 13.0074 201.763C4.9737 192.725 0.956848 178.341 0.956848 158.609V139.178H40.3333V164.031C40.3333 168.625 41.0311 172.221 42.4266 174.82C43.8221 177.418 46.2549 178.717 49.7248 178.717C53.3456 178.717 55.8538 177.663 57.2494 175.554C58.6449 173.445 59.3426 169.981 59.3426 165.161C59.3426 159.061 58.7392 153.958 57.5322 149.854C56.3253 145.749 54.232 141.833 51.2524 138.105C48.2727 134.377 44.1427 130.027 38.8624 125.057L20.9845 108.111C7.63274 95.5342 0.956848 81.1495 0.956848 64.9572C0.956848 48.0119 4.89827 35.0957 12.7811 26.2088C20.6639 17.3219 32.0733 12.8785 47.0092 12.8785C65.2642 12.8785 78.22 17.7362 85.8765 27.4515C93.533 37.1668 97.3613 51.9281 97.3613 71.7354H56.8533V58.0661C56.8533 55.3549 56.0801 53.2461 54.5337 51.7399C52.9873 50.2336 50.8941 49.4805 48.2539 49.4805C45.0856 49.4805 42.7661 50.3654 41.2951 52.1353C39.8241 53.9051 39.0887 56.1833 39.0887 58.9699C39.0887 61.7565 39.843 64.769 41.3517 68.0074C42.8603 71.2459 45.84 74.9738 50.2906 79.1914L73.2602 101.22C77.8616 105.588 82.0859 110.201 85.9331 115.059C89.7802 119.917 92.873 125.565 95.2114 132.004C97.5499 138.444 98.7191 146.295 98.7191 155.558C98.7191 174.236 95.268 188.866 88.3658 199.447C81.4636 210.028 69.4508 215.319 52.3273 215.319ZM183.449 215.319C172.511 215.319 165.138 213.003 161.328 208.372C157.519 203.74 155.614 196.642 155.614 187.077V81.4507H144.186V50.6102H155.614V14.686H194.991V50.6102H206.419V81.4507H194.991V177.587C194.991 180.374 195.443 182.332 196.349 183.462C197.254 184.592 198.989 185.156 201.553 185.156C203.364 185.156 204.986 185.006 206.419 184.705V212.269C205.514 212.57 202.685 213.154 197.933 214.02C193.18 214.886 188.353 215.319 183.449 215.319ZM287.528 215.319C278.099 215.319 270.914 213.135 265.973 208.767C261.032 204.399 257.657 198.411 255.846 190.805C254.036 183.198 253.131 174.575 253.131 164.935C253.131 154.617 254.149 146.163 256.186 139.573C258.222 132.983 261.711 127.58 266.652 123.362C271.593 119.145 278.401 115.567 287.076 112.63L312.195 104.045V86.6473C312.195 77.5345 309.216 72.9781 303.256 72.9781C297.825 72.9781 295.109 76.6684 295.109 84.049V94.2162H255.733C255.658 93.6138 255.62 92.8418 255.62 91.9004V88.6808C255.62 71.8107 259.599 59.8548 267.557 52.8131C275.516 45.7713 288.132 42.2505 305.406 42.2505C314.458 42.2505 322.567 43.8508 329.734 47.0516C336.9 50.2524 342.576 54.9783 346.763 61.2293C350.949 67.4802 353.043 75.1998 353.043 84.3879V213.512H312.761V193.403C310.8 200.483 307.556 205.905 303.03 209.671C298.504 213.436 293.337 215.319 287.528 215.319ZM303.483 183.914C306.802 183.914 309.065 182.52 310.272 179.734C311.479 176.947 312.082 173.935 312.082 170.696V123.475C306.5 125.735 302.163 128.578 299.07 132.004C295.977 135.431 294.431 140.458 294.431 147.086V168.889C294.431 178.905 297.448 183.914 303.483 183.914ZM406.656 213.512V14.686H486.315V53.4344H446.712V85.0658H484.278V123.362H446.712V213.512H406.656Z" fill="url(#paint0_linear_0_2417)"/>
<defs>
<linearGradient id="paint0_linear_0_2417" x1="-348.823" y1="133.434" x2="-190.241" y2="620.852" gradientUnits="userSpaceOnUse">
<stop stop-color="#0093ED"/>
<stop offset="1" stop-color="#00F3AB"/>
</linearGradient>
</defs>
</svg>
