<?xml version="1.0" encoding="UTF-8"?>
<svg width="80px" height="80px" viewBox="0 0 80 80" version="1.1" xmlns="http://www.w3.org/2000/svg" xmlns:xlink="http://www.w3.org/1999/xlink">
    <title>画板</title>
    <defs>
        <linearGradient x1="10.4929716%" y1="13.2556225%" x2="92.2525491%" y2="86.7443775%" id="linearGradient-1">
            <stop stop-color="#0093ED" offset="0%"></stop>
            <stop stop-color="#00F3AB" offset="100%"></stop>
        </linearGradient>
    </defs>
    <g id="画板" stroke="none" stroke-width="1" fill="none" fill-rule="evenodd" fill-opacity="0.1">
        <g id="tuite" transform="translate(1.000000, 7.000000)" fill="url(#linearGradient-1)" fill-rule="nonzero" stroke="url(#linearGradient-1)">
            <path d="M70.0586741,19.0326725 C70.0586741,18.3010029 70.0446406,17.5775883 70.0123084,16.8591267 C73.1399966,14.528598 75.8536957,11.6112751 78,8.27294643 C75.0852536,9.5844676 71.983665,10.4330224 68.8072136,10.7879748 C72.1132101,8.75352601 74.6486009,5.49981126 75.8466789,1.5951884 C72.7511853,3.47251677 69.3271421,4.81464481 65.6865422,5.51398232 C62.7694945,2.19477774 58.6067649,0.080668028 54.0048684,0.00210781148 C45.1667725,-0.144005975 38.0022437,7.32472017 38.0022436,16.6817814 C38.0022436,18.0118022 38.1413407,19.3016485 38.417471,20.5471929 C25.1084582,19.6907349 13.3149289,12.763125 5.42602234,2.31970371 C4.04949831,4.8217992 3.25976846,7.74600125 3.25976846,10.879743 C3.25976846,16.8068449 6.08504788,22.0747836 10.377794,25.1833477 C7.7498095,25.0644755 5.28802599,24.2685543 3.12878885,22.9635738 L3.12878885,23.1812311 C3.12878885,31.4651402 8.64671707,38.4058205 15.9683664,40.0251795 C14.6261007,40.406974 13.2103654,40.6056448 11.754318,40.5984904 C10.7426678,40.5932634 9.73430438,40.4828318 8.74550206,40.2689777 C10.7799509,47.0574906 16.692744,52.0171045 23.6928605,52.1823423 C18.2142812,56.7249403 11.3129498,59.4383642 3.8201465,59.4193777 C2.5282364,59.4193777 1.25159813,59.3327001 -2.70617817e-15,59.1755796 C7.0848679,64.0354453 15.4948036,66.8659544 24.5354225,66.8659544 C53.9645563,66.8729697 70.0586741,41.2575159 70.0586741,19.0326725 L70.0586741,19.0326725 Z" id="Path"></path>
        </g>
    </g>
</svg>