<?xml version="1.0" encoding="UTF-8"?>
<svg width="86px" height="83px" viewBox="0 0 86 83" version="1.1" xmlns="http://www.w3.org/2000/svg" xmlns:xlink="http://www.w3.org/1999/xlink">
    <title>画板</title>
    <defs>
        <linearGradient x1="10.4929716%" y1="37.3429805%" x2="92.2525491%" y2="62.6570195%" id="linearGradient-1">
            <stop stop-color="#0093ED" offset="0%"></stop>
            <stop stop-color="#00F3AB" offset="100%"></stop>
        </linearGradient>
        <linearGradient x1="10.4929716%" y1="11.9726879%" x2="92.2525491%" y2="88.0273121%" id="linearGradient-2">
            <stop stop-color="#0093ED" offset="0%"></stop>
            <stop stop-color="#00F3AB" offset="100%"></stop>
        </linearGradient>
    </defs>
    <g id="画板" stroke="none" stroke-width="1" fill="none" fill-rule="evenodd">
        <g id="hezi" transform="translate(0.000000, 4.000000)" fill-rule="nonzero" stroke-width="0.96">
            <path d="M38.7,25.9615385 L47.3,25.9615385 C50.1666667,25.9615385 51.6,27.4038462 51.6,30.2884615 L51.6,30.2884615 C51.6,33.1730769 50.1666667,34.6153846 47.3,34.6153846 L38.7,34.6153846 C35.8333333,34.6153846 34.4,33.1730769 34.4,30.2884615 L34.4,30.2884615 C34.4,27.4038462 35.8333333,25.9615385 38.7,25.9615385 Z" id="Path" stroke="url(#linearGradient-1)" fill="url(#linearGradient-1)"></path>
            <path d="M75.9666667,0 C81.5079333,0 86,4.52019231 86,10.0961538 C86,14.4134615 83.3062889,18.0980769 79.5184667,19.5413462 C80.0134746,20.6533875 80.2684846,21.8584226 80.2666667,23.0769231 L80.2666667,66.3461538 C80.2666667,71.1255411 76.4163155,75 71.6666667,75 L14.3333333,75 C9.58368448,75 5.73333333,71.1255411 5.73333333,66.3461538 L5.73333333,23.0769231 C5.73333333,21.8173077 6.00088889,20.6201923 6.48153333,19.5403846 C2.58029646,18.0538903 0,14.2938314 0,10.0961538 C0,4.52019231 4.49206667,0 10.0333333,0 L75.9666667,0 Z M71.6666667,20.1923077 L14.3333333,20.1923077 C12.8793167,20.1923077 11.655413,21.2872555 11.4857778,22.7403846 L11.4666666,23.0769231 L11.4666666,66.3461538 C11.4666666,67.8092744 12.5548015,69.0408411 13.9988889,69.2115385 L14.3333333,69.2307693 L71.6666667,69.2307693 C73.1206833,69.2307693 74.344587,68.1358214 74.5142222,66.6826923 L74.5333334,66.3461538 L74.5333334,23.0769231 C74.5333334,21.6138026 73.4451985,20.3822358 72.0011111,20.2115385 L71.6666667,20.1923077 Z M75.9666667,5.76922133 L10.0333333,5.76922133 C7.73558332,5.76444751 5.84009291,7.57829159 5.72942773,9.88774999 C5.61876255,12.1972084 7.33203018,14.18615 9.61957778,14.4038462 L10.0333333,14.4230864 L75.9666667,14.4230864 C78.2644167,14.4278602 80.1599071,12.6140161 80.2705723,10.3045577 C80.3812374,7.9950993 78.6679698,6.00615768 76.3804222,5.78846154 L75.9666667,5.76922133 L75.9666667,5.76922133 Z" id="Shape" stroke="url(#linearGradient-2)"></path>
        </g>
    </g>
</svg>