<?xml version="1.0" encoding="UTF-8"?>
<svg width="80px" height="80px" viewBox="0 0 80 80" version="1.1" xmlns="http://www.w3.org/2000/svg" xmlns:xlink="http://www.w3.org/1999/xlink">
    <title>画板</title>
    <defs>
        <linearGradient x1="10.4929716%" y1="24.0771216%" x2="92.2525491%" y2="75.9228784%" id="linearGradient-1">
            <stop stop-color="#0093ED" offset="0%"></stop>
            <stop stop-color="#00F3AB" offset="100%"></stop>
        </linearGradient>
        <linearGradient x1="10.4929716%" y1="0%" x2="92.2525491%" y2="100%" id="linearGradient-2">
            <stop stop-color="#0093ED" offset="0%"></stop>
            <stop stop-color="#00F3AB" offset="100%"></stop>
        </linearGradient>
    </defs>
    <g id="画板" stroke="none" stroke-width="1" fill="none" fill-rule="evenodd">
        <g id="video_fill" transform="translate(1.000000, 12.000000)">
            <path d="M76.3432775,9.72503968 C75.3214565,9.18787166 74.087237,9.25497485 73.1296776,9.89975967 L64.2064779,15.9494395 L64.2064779,6.24311979 C64.2047583,2.79707046 61.4125261,0.00344217812 57.9664781,0 L6.23999979,0 C2.79516883,0.00343967402 0.00343967402,2.79516883 0,6.23999979 L0,49.9231183 C0,53.3675982 2.79863991,56.1631181 6.23999979,56.1631181 L57.9695981,56.1631181 C61.4119919,56.1562419 64.1999258,53.3655173 64.2033579,49.9231183 L64.2033579,45.7703985 L64.2407979,43.3024786 L73.1171976,49.3802384 C74.0727455,50.0345725 75.3121142,50.1057891 76.336324,49.5652158 C77.3605337,49.0246425 78.0010506,47.9612307 78,46.8031184 L78,12.4831196 C78,11.3287196 77.3603974,10.2679197 76.3463975,9.72503968" id="Shape" stroke="url(#linearGradient-1)" fill-opacity="0.1" fill="url(#linearGradient-1)" fill-rule="nonzero"></path>
            <path d="M20.4645379,28.454399 C17.6109863,28.4534482 14.9747032,26.9302179 13.5487509,24.4584943 C12.1227985,21.9867707 12.1238131,18.9420674 13.5514124,16.4712946 C14.9790116,14.0005219 17.6163093,12.4790489 20.4698609,12.4799993 C24.8795995,12.4799993 28.4543988,16.0547993 28.4543988,20.4645379 C28.4543988,24.8742764 24.8795995,28.4490759 20.4698609,28.449076" id="Path" fill="url(#linearGradient-2)"></path>
        </g>
    </g>
</svg>