<svg width="908" height="216" viewBox="0 0 908 216" fill="none" xmlns="http://www.w3.org/2000/svg">
<path d="M21.3741 214.192L0 15.3662H38.9032L49.873 140.875L61.069 15.3662H98.1627L108.793 140.875L119.424 15.3662H158.779L137.066 214.192H89.3416L79.3896 118.507L69.89 214.192H21.3741Z" fill="white"/>
<path fill-rule="evenodd" clip-rule="evenodd" d="M216.605 209.447C221.544 213.815 228.725 215.999 238.149 215.999C243.955 215.999 249.119 214.117 253.643 210.351C258.166 206.585 261.408 201.163 263.368 194.083V214.192H303.629V85.0681C303.629 75.88 301.537 68.1604 297.352 61.9095C293.168 55.6585 287.494 50.9326 280.332 47.7319C273.17 44.5311 265.065 42.9307 256.018 42.9307C238.752 42.9307 226.143 46.4515 218.189 53.4933C210.235 60.535 206.258 72.4909 206.258 89.361V92.5806C206.258 93.522 206.295 94.294 206.371 94.8965H245.726V84.7292C245.726 77.3486 248.441 73.6583 253.869 73.6583C259.825 73.6583 262.803 78.2147 262.803 87.3275V104.725L237.697 113.31C229.027 116.248 222.222 119.825 217.284 124.042C212.346 128.26 208.859 133.664 206.823 140.254C204.788 146.843 203.77 155.297 203.77 165.615C203.77 175.255 204.674 183.878 206.484 191.485C208.293 199.092 211.667 205.079 216.605 209.447ZM260.88 180.414C259.674 183.201 257.412 184.594 254.095 184.594C248.064 184.594 245.048 179.586 245.048 169.569V147.766C245.048 141.138 246.593 136.111 249.685 132.685C252.776 129.258 257.111 126.415 262.69 124.155V171.377C262.69 174.615 262.087 177.628 260.88 180.414Z" fill="white"/>
<path d="M356.536 214.192V44.7385H397.701V63.6044C399.661 57.0522 403.129 51.9309 408.105 48.2406C413.081 44.5502 419.339 42.7051 426.878 42.7051V76.4828C423.561 76.4828 419.602 76.8406 415.003 77.5561C410.404 78.2715 406.371 79.2506 402.903 80.4932C399.435 81.7359 397.701 83.1104 397.701 84.6166V214.192H356.536Z" fill="white"/>
<path d="M474.13 214.192V44.7385H515.295V63.6044C517.255 57.0522 520.723 51.9309 525.699 48.2406C530.675 44.5502 536.933 42.7051 544.473 42.7051V76.4828C541.155 76.4828 537.197 76.8406 532.598 77.5561C527.999 78.2715 523.965 79.2506 520.497 80.4932C517.029 81.7359 515.295 83.1104 515.295 84.6166V214.192H474.13Z" fill="white"/>
<path fill-rule="evenodd" clip-rule="evenodd" d="M591.499 0.680664V34.3455H631.985V0.680664H591.499ZM591.499 44.7386V214.192H631.985V44.7386H591.499Z" fill="white"/>
<path fill-rule="evenodd" clip-rule="evenodd" d="M683.987 163.469C683.987 198.489 700.875 215.999 734.652 215.999C768.503 215.999 785.429 198.489 785.429 163.469V95.4613C785.429 79.495 780.943 66.7483 771.972 57.2213C763 47.6942 750.56 42.9307 734.652 42.9307C718.819 42.9307 706.417 47.6942 697.445 57.2213C688.473 66.7483 683.987 79.495 683.987 95.4613V163.469ZM741.946 181.148C740.476 183.596 738.044 184.82 734.652 184.82C731.259 184.82 728.828 183.596 727.357 181.148C725.887 178.701 725.152 175.594 725.152 171.828V89.0221C725.152 79.1561 728.319 74.2231 734.652 74.2231C740.985 74.2231 744.151 79.1561 744.151 89.0221V171.828C744.151 175.594 743.416 178.701 741.946 181.148Z" fill="white"/>
<path d="M837.658 214.192V44.7385H878.823V63.6044C880.783 57.0522 884.251 51.9309 889.227 48.2406C894.203 44.5502 900.461 42.7051 908 42.7051V76.4828C904.683 76.4828 900.724 76.8406 896.125 77.5561C891.526 78.2715 887.493 79.2506 884.025 80.4932C880.557 81.7359 878.823 83.1104 878.823 84.6166V214.192H837.658Z" fill="white"/>
</svg>
